<svg xmlns="http://www.w3.org/2000/svg" viewBox="0 0 64 64" fill="none">
  <rect width="64" height="64" rx="12" fill="url(#gradient)"/>
  <defs>
    <linearGradient id="gradient" x1="0" y1="0" x2="64" y2="64" gradientUnits="userSpaceOnUse">
      <stop offset="0%" stop-color="#0EA5E9"/>
      <stop offset="100%" stop-color="#8B5CF6"/>
    </linearGradient>
  </defs>
  
  <!-- Network connectivity icon -->
  <circle cx="32" cy="32" r="6" fill="white"/>
  <circle cx="32" cy="16" r="4" fill="white" opacity="0.8"/>
  <circle cx="32" cy="48" r="4" fill="white" opacity="0.8"/>
  <circle cx="16" cy="32" r="4" fill="white" opacity="0.8"/>
  <circle cx="48" cy="32" r="4" fill="white" opacity="0.8"/>
  
  <path d="M32 20L32 26" stroke="white" stroke-width="2.5" stroke-linecap="round"/>
  <path d="M32 38L32 44" stroke="white" stroke-width="2.5" stroke-linecap="round"/>
  <path d="M20 32L26 32" stroke="white" stroke-width="2.5" stroke-linecap="round"/>
  <path d="M38 32L44 32" stroke="white" stroke-width="2.5" stroke-linecap="round"/>
  
  <circle cx="20" cy="20" r="3" fill="white" opacity="0.6"/>
  <circle cx="44" cy="20" r="3" fill="white" opacity="0.6"/>
  <circle cx="20" cy="44" r="3" fill="white" opacity="0.6"/>
  <circle cx="44" cy="44" r="3" fill="white" opacity="0.6"/>
  
  <path d="M23 23L29 29" stroke="white" stroke-width="1.5" stroke-linecap="round" opacity="0.6"/>
  <path d="M41 23L35 29" stroke="white" stroke-width="1.5" stroke-linecap="round" opacity="0.6"/>
  <path d="M23 41L29 35" stroke="white" stroke-width="1.5" stroke-linecap="round" opacity="0.6"/>
  <path d="M41 41L35 35" stroke="white" stroke-width="1.5" stroke-linecap="round" opacity="0.6"/>
</svg>
